<svg xmlns="http://www.w3.org/2000/svg" xmlns:xlink="http://www.w3.org/1999/xlink" width="1920" zoomAndPan="magnify" viewBox="0 0 1440 359.999987" height="480" preserveAspectRatio="xMidYMid meet" version="1.0"><defs><g/><clipPath id="d8a09a3136"><path d="M 436 36 L 1004 36 L 1004 169 L 436 169 Z M 436 36 " clip-rule="nonzero"/></clipPath></defs><g clip-path="url(#d8a09a3136)"><path fill="#473c38" d="M 683.050781 35.222656 C 681.40625 35.203125 679.789062 35.394531 678.195312 35.796875 C 676.597656 36.199219 675.082031 36.800781 673.644531 37.597656 C 672.207031 38.398438 670.898438 39.371094 669.710938 40.515625 C 668.527344 41.660156 667.511719 42.9375 666.660156 44.347656 C 666.660156 44.347656 635.289062 91.535156 571.289062 92.613281 C 570.46875 92.511719 569.648438 92.460938 568.820312 92.46875 C 568.117188 92.476562 567.417969 92.527344 566.722656 92.613281 C 502.875 91.429688 471.570312 44.347656 471.570312 44.347656 C 470.707031 43.023438 469.695312 41.824219 468.53125 40.753906 C 467.371094 39.6875 466.09375 38.777344 464.703125 38.027344 C 463.3125 37.28125 461.851562 36.714844 460.320312 36.335938 C 458.789062 35.953125 457.234375 35.769531 455.65625 35.777344 C 453.941406 35.792969 452.261719 36.039062 450.613281 36.515625 C 448.964844 36.988281 447.410156 37.679688 445.949219 38.578125 C 444.488281 39.480469 443.175781 40.558594 442.007812 41.816406 C 440.839844 43.078125 439.863281 44.472656 439.074219 45.996094 C 438.289062 47.523438 437.71875 49.128906 437.367188 50.8125 C 437.015625 52.496094 436.894531 54.195312 437.003906 55.910156 C 437.117188 57.625 437.453125 59.292969 438.019531 60.917969 C 438.582031 62.539062 439.355469 64.058594 440.332031 65.46875 C 440.332031 65.46875 452.097656 82.476562 474.738281 99.113281 L 463.980469 116.359375 C 463.636719 116.886719 463.320312 117.425781 463.03125 117.984375 C 462.742188 118.539062 462.480469 119.109375 462.246094 119.691406 C 462.011719 120.273438 461.808594 120.867188 461.632812 121.472656 C 461.457031 122.074219 461.316406 122.683594 461.199219 123.300781 C 461.085938 123.921875 461.003906 124.542969 460.953125 125.167969 C 460.898438 125.792969 460.878906 126.421875 460.886719 127.046875 C 460.898438 127.675781 460.941406 128.300781 461.011719 128.925781 C 461.085938 129.550781 461.1875 130.167969 461.320312 130.78125 C 461.457031 131.394531 461.621094 132 461.8125 132.597656 C 462.007812 133.195312 462.230469 133.78125 462.484375 134.355469 C 462.734375 134.933594 463.015625 135.492188 463.324219 136.039062 C 463.632812 136.585938 463.964844 137.117188 464.328125 137.628906 C 464.6875 138.144531 465.074219 138.636719 465.480469 139.113281 C 465.890625 139.585938 466.324219 140.042969 466.78125 140.472656 C 467.234375 140.90625 467.710938 141.3125 468.203125 141.699219 C 468.699219 142.082031 469.214844 142.441406 469.746094 142.773438 C 470.277344 143.105469 470.820312 143.414062 471.382812 143.691406 C 471.945312 143.96875 472.519531 144.21875 473.105469 144.441406 C 473.691406 144.660156 474.289062 144.851562 474.894531 145.015625 C 475.5 145.175781 476.109375 145.308594 476.730469 145.410156 C 477.347656 145.507812 477.96875 145.578125 478.59375 145.617188 C 479.21875 145.65625 479.84375 145.664062 480.472656 145.636719 C 481.097656 145.613281 481.71875 145.558594 482.339844 145.472656 C 482.960938 145.386719 483.578125 145.269531 484.183594 145.121094 C 484.792969 144.972656 485.394531 144.796875 485.984375 144.589844 C 486.578125 144.382812 487.15625 144.144531 487.722656 143.878906 C 488.292969 143.613281 488.84375 143.320312 489.382812 143 C 489.921875 142.679688 490.441406 142.332031 490.949219 141.957031 C 491.453125 141.585938 491.9375 141.1875 492.402344 140.765625 C 492.863281 140.347656 493.308594 139.902344 493.726562 139.4375 C 494.148438 138.972656 494.546875 138.488281 494.917969 137.980469 C 495.289062 137.476562 495.636719 136.953125 495.957031 136.414062 L 507.523438 117.875 C 520.070312 123.242188 534.304688 127.386719 550.253906 129.285156 L 550.253906 149.449219 C 550.246094 150.074219 550.269531 150.699219 550.320312 151.320312 C 550.375 151.945312 550.457031 152.5625 550.570312 153.175781 C 550.683594 153.792969 550.828125 154.398438 551.003906 155 C 551.175781 155.597656 551.378906 156.1875 551.613281 156.769531 C 551.84375 157.347656 552.105469 157.914062 552.394531 158.46875 C 552.683594 159.023438 552.996094 159.5625 553.339844 160.085938 C 553.679688 160.609375 554.046875 161.113281 554.441406 161.597656 C 554.832031 162.085938 555.246094 162.550781 555.683594 162.996094 C 556.121094 163.441406 556.578125 163.863281 557.058594 164.261719 C 557.539062 164.660156 558.035156 165.035156 558.554688 165.386719 C 559.070312 165.734375 559.601562 166.058594 560.148438 166.355469 C 560.699219 166.652344 561.261719 166.921875 561.835938 167.164062 C 562.410156 167.40625 562.996094 167.617188 563.59375 167.800781 C 564.1875 167.984375 564.792969 168.136719 565.402344 168.257812 C 566.015625 168.382812 566.628906 168.472656 567.25 168.535156 C 567.871094 168.597656 568.492188 168.628906 569.117188 168.628906 C 569.738281 168.628906 570.359375 168.597656 570.980469 168.535156 C 571.601562 168.472656 572.214844 168.382812 572.828125 168.257812 C 573.4375 168.136719 574.042969 167.984375 574.636719 167.800781 C 575.234375 167.617188 575.820312 167.40625 576.394531 167.164062 C 576.96875 166.921875 577.53125 166.652344 578.082031 166.355469 C 578.628906 166.058594 579.160156 165.734375 579.679688 165.386719 C 580.195312 165.035156 580.691406 164.660156 581.171875 164.261719 C 581.652344 163.863281 582.109375 163.441406 582.546875 162.996094 C 582.984375 162.550781 583.398438 162.085938 583.789062 161.597656 C 584.183594 161.113281 584.550781 160.609375 584.890625 160.085938 C 585.234375 159.5625 585.546875 159.023438 585.835938 158.46875 C 586.125 157.914062 586.386719 157.347656 586.617188 156.769531 C 586.851562 156.1875 587.054688 155.597656 587.226562 155 C 587.402344 154.398438 587.546875 153.792969 587.660156 153.175781 C 587.773438 152.5625 587.855469 151.945312 587.910156 151.320312 C 587.960938 150.699219 587.984375 150.074219 587.976562 149.449219 L 587.976562 129.285156 C 603.925781 127.386719 618.160156 123.242188 630.707031 117.875 L 642.273438 136.414062 C 642.59375 136.953125 642.941406 137.476562 643.3125 137.980469 C 643.683594 138.488281 644.082031 138.972656 644.503906 139.4375 C 644.921875 139.902344 645.367188 140.347656 645.832031 140.765625 C 646.292969 141.1875 646.777344 141.585938 647.285156 141.957031 C 647.789062 142.332031 648.308594 142.679688 648.847656 143 C 649.386719 143.320312 649.9375 143.613281 650.507812 143.878906 C 651.074219 144.144531 651.652344 144.382812 652.246094 144.589844 C 652.835938 144.796875 653.4375 144.972656 654.046875 145.121094 C 654.65625 145.269531 655.269531 145.386719 655.890625 145.472656 C 656.511719 145.558594 657.132812 145.613281 657.757812 145.636719 C 658.386719 145.664062 659.011719 145.65625 659.636719 145.617188 C 660.261719 145.578125 660.882812 145.507812 661.503906 145.410156 C 662.121094 145.308594 662.730469 145.175781 663.335938 145.015625 C 663.941406 144.851562 664.539062 144.660156 665.125 144.441406 C 665.710938 144.21875 666.285156 143.96875 666.847656 143.691406 C 667.410156 143.414062 667.953125 143.105469 668.484375 142.773438 C 669.015625 142.441406 669.53125 142.082031 670.027344 141.699219 C 670.519531 141.3125 670.996094 140.90625 671.453125 140.472656 C 671.90625 140.042969 672.339844 139.589844 672.75 139.113281 C 673.160156 138.636719 673.542969 138.144531 673.902344 137.628906 C 674.265625 137.117188 674.597656 136.585938 674.90625 136.039062 C 675.214844 135.492188 675.496094 134.933594 675.746094 134.355469 C 676 133.78125 676.222656 133.195312 676.417969 132.597656 C 676.609375 132 676.773438 131.394531 676.910156 130.78125 C 677.042969 130.167969 677.144531 129.550781 677.21875 128.925781 C 677.289062 128.300781 677.332031 127.675781 677.34375 127.046875 C 677.351562 126.421875 677.332031 125.792969 677.277344 125.167969 C 677.226562 124.542969 677.144531 123.921875 677.03125 123.300781 C 676.917969 122.683594 676.773438 122.074219 676.597656 121.472656 C 676.421875 120.867188 676.21875 120.273438 675.984375 119.691406 C 675.75 119.109375 675.488281 118.539062 675.199219 117.984375 C 674.910156 117.425781 674.59375 116.886719 674.25 116.359375 L 663.492188 99.113281 C 686.132812 82.476562 697.898438 65.46875 697.898438 65.46875 C 698.417969 64.777344 698.886719 64.046875 699.304688 63.289062 C 699.726562 62.527344 700.089844 61.742188 700.402344 60.933594 C 700.714844 60.125 700.96875 59.296875 701.164062 58.449219 C 701.363281 57.605469 701.503906 56.75 701.582031 55.886719 C 701.664062 55.019531 701.683594 54.15625 701.644531 53.289062 C 701.605469 52.421875 701.507812 51.558594 701.351562 50.707031 C 701.195312 49.851562 700.980469 49.011719 700.707031 48.1875 C 700.433594 47.363281 700.109375 46.5625 699.726562 45.785156 C 699.34375 45.003906 698.910156 44.257812 698.425781 43.535156 C 697.9375 42.816406 697.40625 42.136719 696.828125 41.488281 C 696.25 40.84375 695.628906 40.242188 694.964844 39.679688 C 694.304688 39.121094 693.609375 38.609375 692.875 38.144531 C 692.144531 37.683594 691.382812 37.269531 690.59375 36.910156 C 689.804688 36.554688 688.996094 36.25 688.164062 36.003906 C 687.335938 35.757812 686.492188 35.566406 685.636719 35.4375 C 684.78125 35.308594 683.917969 35.234375 683.050781 35.222656 Z M 984.820312 35.222656 C 983.175781 35.203125 981.558594 35.394531 979.964844 35.796875 C 978.367188 36.199219 976.851562 36.800781 975.414062 37.597656 C 973.976562 38.398438 972.667969 39.371094 971.480469 40.515625 C 970.296875 41.660156 969.28125 42.9375 968.429688 44.347656 C 968.429688 44.347656 937.058594 91.535156 873.058594 92.613281 C 872.238281 92.511719 871.414062 92.460938 870.589844 92.46875 C 869.886719 92.476562 869.1875 92.527344 868.492188 92.613281 C 804.640625 91.429688 773.339844 44.347656 773.339844 44.347656 C 772.476562 43.023438 771.464844 41.824219 770.300781 40.753906 C 769.140625 39.6875 767.863281 38.777344 766.472656 38.027344 C 765.082031 37.28125 763.621094 36.714844 762.089844 36.335938 C 760.558594 35.953125 759.003906 35.769531 757.425781 35.777344 C 755.710938 35.792969 754.03125 36.039062 752.382812 36.515625 C 750.734375 36.988281 749.179688 37.679688 747.71875 38.578125 C 746.257812 39.480469 744.945312 40.558594 743.777344 41.816406 C 742.609375 43.078125 741.632812 44.472656 740.84375 45.996094 C 740.058594 47.523438 739.488281 49.128906 739.136719 50.8125 C 738.785156 52.496094 738.664062 54.195312 738.773438 55.910156 C 738.886719 57.625 739.222656 59.292969 739.789062 60.917969 C 740.351562 62.539062 741.125 64.058594 742.101562 65.46875 C 742.101562 65.46875 754.09375 82.367188 776.65625 98.929688 L 765.75 116.359375 C 765.40625 116.886719 765.089844 117.425781 764.800781 117.984375 C 764.511719 118.539062 764.25 119.109375 764.015625 119.691406 C 763.78125 120.273438 763.578125 120.867188 763.402344 121.472656 C 763.226562 122.074219 763.082031 122.683594 762.96875 123.300781 C 762.855469 123.921875 762.773438 124.542969 762.722656 125.167969 C 762.667969 125.792969 762.648438 126.421875 762.65625 127.046875 C 762.667969 127.675781 762.710938 128.300781 762.78125 128.925781 C 762.855469 129.550781 762.957031 130.167969 763.089844 130.78125 C 763.226562 131.394531 763.390625 132 763.582031 132.597656 C 763.777344 133.195312 764 133.78125 764.253906 134.355469 C 764.503906 134.933594 764.785156 135.492188 765.09375 136.039062 C 765.402344 136.585938 765.734375 137.117188 766.097656 137.628906 C 766.457031 138.144531 766.839844 138.636719 767.25 139.113281 C 767.660156 139.589844 768.09375 140.042969 768.546875 140.472656 C 769.003906 140.90625 769.480469 141.3125 769.972656 141.699219 C 770.46875 142.082031 770.984375 142.441406 771.515625 142.773438 C 772.046875 143.105469 772.589844 143.414062 773.152344 143.691406 C 773.714844 143.96875 774.289062 144.21875 774.875 144.441406 C 775.460938 144.660156 776.058594 144.851562 776.664062 145.015625 C 777.269531 145.175781 777.878906 145.308594 778.496094 145.410156 C 779.117188 145.507812 779.738281 145.578125 780.363281 145.617188 C 780.988281 145.65625 781.613281 145.664062 782.242188 145.636719 C 782.867188 145.613281 783.488281 145.558594 784.109375 145.472656 C 784.730469 145.386719 785.34375 145.269531 785.953125 145.121094 C 786.5625 144.972656 787.164062 144.796875 787.753906 144.589844 C 788.347656 144.382812 788.925781 144.144531 789.492188 143.878906 C 790.0625 143.613281 790.613281 143.320312 791.152344 143 C 791.691406 142.679688 792.210938 142.332031 792.714844 141.957031 C 793.222656 141.585938 793.707031 141.1875 794.167969 140.765625 C 794.632812 140.347656 795.078125 139.902344 795.496094 139.4375 C 795.917969 138.972656 796.316406 138.488281 796.6875 137.980469 C 797.058594 137.476562 797.40625 136.953125 797.726562 136.414062 L 809.476562 117.617188 C 822.050781 122.988281 836.042969 127.382812 852.023438 129.285156 L 852.023438 149.449219 C 852.015625 150.074219 852.039062 150.699219 852.089844 151.320312 C 852.144531 151.945312 852.226562 152.5625 852.339844 153.175781 C 852.453125 153.792969 852.597656 154.398438 852.773438 155 C 852.945312 155.597656 853.148438 156.1875 853.382812 156.769531 C 853.613281 157.347656 853.875 157.914062 854.164062 158.46875 C 854.453125 159.023438 854.769531 159.5625 855.109375 160.085938 C 855.453125 160.605469 855.816406 161.109375 856.210938 161.597656 C 856.601562 162.082031 857.015625 162.550781 857.453125 162.992188 C 857.890625 163.4375 858.347656 163.859375 858.828125 164.261719 C 859.308594 164.660156 859.804688 165.035156 860.324219 165.382812 C 860.839844 165.734375 861.371094 166.058594 861.917969 166.355469 C 862.46875 166.652344 863.03125 166.921875 863.605469 167.164062 C 864.179688 167.402344 864.765625 167.617188 865.363281 167.796875 C 865.957031 167.980469 866.5625 168.132812 867.171875 168.257812 C 867.785156 168.378906 868.398438 168.472656 869.019531 168.535156 C 869.640625 168.597656 870.261719 168.628906 870.882812 168.628906 C 871.507812 168.628906 872.128906 168.597656 872.75 168.535156 C 873.371094 168.472656 873.984375 168.378906 874.597656 168.257812 C 875.207031 168.132812 875.8125 167.980469 876.40625 167.796875 C 877.003906 167.617188 877.589844 167.402344 878.164062 167.164062 C 878.738281 166.921875 879.300781 166.652344 879.847656 166.355469 C 880.398438 166.058594 880.929688 165.734375 881.445312 165.382812 C 881.964844 165.035156 882.460938 164.660156 882.941406 164.261719 C 883.417969 163.859375 883.878906 163.4375 884.316406 162.992188 C 884.753906 162.550781 885.167969 162.082031 885.558594 161.597656 C 885.953125 161.109375 886.316406 160.605469 886.660156 160.085938 C 887 159.5625 887.316406 159.023438 887.605469 158.46875 C 887.894531 157.914062 888.152344 157.347656 888.386719 156.769531 C 888.617188 156.1875 888.824219 155.597656 888.996094 155 C 889.171875 154.398438 889.316406 153.792969 889.429688 153.175781 C 889.542969 152.5625 889.625 151.945312 889.679688 151.320312 C 889.730469 150.699219 889.753906 150.074219 889.746094 149.449219 L 889.746094 129.285156 C 905.695312 127.386719 919.929688 123.242188 932.476562 117.875 L 944.042969 136.414062 C 944.363281 136.953125 944.710938 137.476562 945.082031 137.980469 C 945.453125 138.488281 945.851562 138.972656 946.273438 139.4375 C 946.691406 139.902344 947.136719 140.347656 947.597656 140.765625 C 948.0625 141.1875 948.546875 141.585938 949.050781 141.957031 C 949.558594 142.332031 950.078125 142.679688 950.617188 143 C 951.15625 143.320312 951.707031 143.613281 952.277344 143.878906 C 952.84375 144.144531 953.421875 144.382812 954.015625 144.589844 C 954.605469 144.796875 955.207031 144.972656 955.816406 145.121094 C 956.421875 145.269531 957.039062 145.386719 957.660156 145.472656 C 958.28125 145.558594 958.902344 145.613281 959.527344 145.636719 C 960.15625 145.664062 960.78125 145.65625 961.40625 145.617188 C 962.03125 145.578125 962.652344 145.507812 963.269531 145.410156 C 963.890625 145.308594 964.5 145.175781 965.105469 145.015625 C 965.710938 144.851562 966.308594 144.660156 966.894531 144.441406 C 967.480469 144.21875 968.054688 143.96875 968.617188 143.691406 C 969.179688 143.414062 969.722656 143.105469 970.253906 142.773438 C 970.785156 142.441406 971.300781 142.082031 971.796875 141.699219 C 972.289062 141.3125 972.765625 140.90625 973.21875 140.472656 C 973.675781 140.042969 974.109375 139.589844 974.519531 139.113281 C 974.925781 138.636719 975.3125 138.144531 975.671875 137.628906 C 976.035156 137.117188 976.367188 136.585938 976.675781 136.039062 C 976.984375 135.492188 977.265625 134.933594 977.515625 134.355469 C 977.769531 133.78125 977.992188 133.195312 978.1875 132.597656 C 978.378906 132 978.542969 131.394531 978.679688 130.78125 C 978.8125 130.167969 978.914062 129.550781 978.988281 128.925781 C 979.058594 128.300781 979.101562 127.675781 979.113281 127.046875 C 979.121094 126.421875 979.101562 125.792969 979.046875 125.167969 C 978.996094 124.542969 978.914062 123.921875 978.800781 123.300781 C 978.683594 122.683594 978.542969 122.074219 978.367188 121.472656 C 978.191406 120.867188 977.988281 120.273438 977.753906 119.691406 C 977.519531 119.109375 977.257812 118.539062 976.96875 117.984375 C 976.679688 117.425781 976.363281 116.886719 976.019531 116.359375 L 965.261719 99.113281 C 987.902344 82.476562 999.667969 65.46875 999.667969 65.46875 C 1000.1875 64.777344 1000.65625 64.046875 1001.074219 63.289062 C 1001.496094 62.527344 1001.859375 61.742188 1002.171875 60.933594 C 1002.484375 60.125 1002.738281 59.296875 1002.933594 58.449219 C 1003.132812 57.605469 1003.273438 56.75 1003.351562 55.886719 C 1003.433594 55.019531 1003.453125 54.15625 1003.414062 53.289062 C 1003.375 52.421875 1003.277344 51.558594 1003.121094 50.707031 C 1002.964844 49.851562 1002.75 49.011719 1002.476562 48.1875 C 1002.203125 47.363281 1001.878906 46.5625 1001.496094 45.785156 C 1001.113281 45.003906 1000.679688 44.257812 1000.195312 43.535156 C 999.707031 42.816406 999.175781 42.136719 998.597656 41.488281 C 998.019531 40.84375 997.398438 40.242188 996.734375 39.679688 C 996.074219 39.121094 995.375 38.609375 994.644531 38.144531 C 993.914062 37.683594 993.152344 37.269531 992.363281 36.910156 C 991.574219 36.554688 990.765625 36.25 989.933594 36.003906 C 989.105469 35.757812 988.261719 35.566406 987.40625 35.4375 C 986.550781 35.308594 985.6875 35.234375 984.820312 35.222656 Z M 984.820312 35.222656 " fill-opacity="1" fill-rule="nonzero"/></g><g fill="#473c38" fill-opacity="1"><g transform="translate(315.316412, 302.660309)"><g><path d="M 35.054688 1.726562 C 35.765625 1.726562 36.578125 1.625 37.289062 1.421875 L 38.914062 0.914062 L 40.4375 0.8125 C 41.453125 0.710938 42.367188 0.507812 43.28125 0 L 44.707031 -0.8125 L 46.839844 -1.21875 C 47.753906 -1.421875 48.566406 -1.828125 49.277344 -2.234375 L 51.105469 -3.351562 L 53.339844 -4.980469 L 56.085938 -7.621094 L 57.507812 -9.652344 L 58.625 -10.769531 C 59.4375 -11.582031 60.046875 -12.394531 60.351562 -13.308594 L 60.65625 -14.121094 C 60.859375 -14.730469 61.0625 -15.242188 61.164062 -15.851562 L 61.46875 -17.273438 C 61.570312 -17.78125 61.671875 -18.085938 61.671875 -18.59375 L 61.671875 -23.0625 C 61.671875 -23.875 61.570312 -24.585938 61.265625 -25.503906 L 60.554688 -27.636719 L 59.335938 -30.480469 L 57.8125 -33.527344 C 57.203125 -34.75 56.492188 -35.867188 55.375 -36.578125 L 54.457031 -37.1875 L 53.238281 -38.507812 C 52.628906 -39.117188 51.917969 -39.523438 51.207031 -39.929688 L 49.074219 -41.046875 L 46.230469 -42.570312 L 43.585938 -43.585938 L 40.84375 -44.195312 L 38.203125 -46.027344 L 35.96875 -46.941406 L 36.070312 -50.597656 L 41.65625 -51.613281 L 43.890625 -50.902344 L 46.636719 -49.480469 C 48.464844 -48.261719 50.089844 -47.855469 51.207031 -48.261719 C 52.324219 -48.667969 53.238281 -49.582031 54.355469 -50.699219 L 54.664062 -51.003906 L 56.1875 -53.339844 L 57.914062 -56.085938 L 58.320312 -56.695312 C 59.234375 -58.523438 59.539062 -60.757812 58.828125 -62.890625 L 58.726562 -63.195312 L 57.914062 -64.414062 C 57.40625 -65.230469 56.492188 -66.042969 55.375 -66.550781 L 54.457031 -66.957031 L 52.425781 -68.378906 C 52.121094 -68.582031 51.613281 -68.785156 51.207031 -68.988281 L 49.378906 -69.800781 C 48.871094 -70.003906 48.261719 -70.207031 47.652344 -70.308594 L 45.621094 -70.714844 L 43.789062 -71.222656 L 42.46875 -71.527344 L 36.476562 -72.339844 L 32.207031 -72.746094 C 31.292969 -72.847656 30.378906 -72.644531 29.464844 -72.441406 L 24.28125 -71.121094 L 21.4375 -70.207031 L 19.101562 -69.496094 C 18.390625 -69.292969 17.78125 -68.988281 17.171875 -68.582031 L 15.75 -67.667969 L 14.222656 -66.957031 C 13.207031 -66.449219 12.394531 -65.839844 11.582031 -64.824219 L 8.839844 -61.46875 L 7.824219 -60.351562 C 6.910156 -59.335938 6.503906 -58.21875 6.097656 -56.898438 L 5.792969 -55.78125 L 5.183594 -53.238281 L 4.570312 -48.261719 C 4.46875 -47.246094 4.570312 -46.230469 4.875 -45.316406 L 5.488281 -43.28125 L 5.792969 -42.164062 C 5.996094 -41.453125 6.300781 -40.742188 6.707031 -40.03125 L 7.925781 -38.203125 C 8.128906 -37.796875 8.433594 -37.59375 8.738281 -37.1875 L 10.160156 -35.664062 L 11.277344 -34.339844 C 11.683594 -33.832031 12.191406 -33.425781 12.699219 -33.019531 L 14.832031 -31.597656 L 16.359375 -30.480469 C 16.867188 -30.074219 17.578125 -29.769531 18.1875 -29.566406 L 19.914062 -28.957031 L 22.25 -27.738281 C 22.65625 -27.535156 22.960938 -27.332031 23.367188 -27.230469 L 25.402344 -26.621094 L 28.550781 -25.097656 L 30.480469 -23.671875 L 30.277344 -20.117188 L 25.300781 -19.609375 L 22.046875 -19.914062 L 18.796875 -21.132812 L 15.648438 -22.453125 C 13.714844 -23.46875 12.089844 -23.875 11.074219 -23.46875 C 10.058594 -23.0625 9.347656 -21.742188 8.027344 -20.421875 L 7.925781 -20.320312 L 6.199219 -17.984375 L 4.46875 -15.546875 C 3.25 -14.121094 2.742188 -12.394531 3.148438 -10.769531 C 3.554688 -8.941406 4.164062 -7.722656 5.183594 -6.808594 C 5.691406 -6.300781 6.300781 -5.894531 6.910156 -5.589844 L 8.128906 -5.082031 L 10.363281 -3.351562 C 11.074219 -2.84375 11.785156 -2.539062 12.597656 -2.234375 L 14.121094 -1.726562 L 17.070312 -0.710938 L 19.710938 0.304688 L 22.554688 1.015625 C 23.164062 1.117188 23.773438 1.21875 24.382812 1.21875 L 26.621094 1.320312 L 29.363281 1.625 Z M 35.054688 1.726562 "/></g></g></g><g fill="#473c38" fill-opacity="1"><g transform="translate(380.036591, 302.660309)"><g><path d="M 40.539062 0.507812 L 41.859375 0.304688 C 42.671875 0.203125 43.585938 -0.304688 44.808594 -1.320312 L 45.519531 -1.929688 C 46.636719 -2.84375 47.347656 -3.757812 47.753906 -4.875 C 48.058594 -5.894531 48.261719 -6.707031 48.160156 -7.824219 L 48.058594 -9.449219 L 48.667969 -10.566406 C 49.074219 -11.277344 49.378906 -12.292969 49.480469 -13.308594 L 49.582031 -15.140625 L 49.988281 -18.1875 L 50.496094 -21.335938 L 51.714844 -24.382812 L 52.121094 -26.113281 C 52.222656 -26.519531 52.324219 -27.027344 52.324219 -27.433594 L 52.425781 -30.175781 L 53.542969 -33.019531 L 55.070312 -33.324219 L 55.070312 -31.597656 C 55.070312 -30.378906 55.273438 -29.261719 55.78125 -28.144531 L 56.1875 -27.230469 L 56.390625 -24.179688 L 56.898438 -21.234375 L 58.117188 -17.578125 L 58.726562 -15.34375 L 58.929688 -11.988281 L 59.539062 -9.144531 L 60.351562 -5.792969 L 60.351562 -5.691406 C 60.65625 -3.859375 61.46875 -2.335938 62.6875 -1.21875 C 63.90625 -0.101562 65.535156 0.507812 67.363281 0.40625 L 70.613281 0.101562 L 72.238281 0.304688 C 73.253906 0.40625 74.269531 0.40625 75.390625 0 L 76 -0.203125 L 78.945312 0.101562 C 79.554688 0.203125 80.164062 0.203125 80.773438 0.101562 L 82.804688 -0.203125 L 84.023438 0.101562 C 84.636719 0.304688 85.246094 0.304688 85.855469 0.304688 L 86.667969 0.304688 C 87.785156 0.304688 88.902344 -0.203125 89.917969 -1.21875 C 90.933594 -2.234375 91.644531 -3.351562 92.050781 -4.773438 L 92.253906 -5.488281 C 92.457031 -5.996094 92.558594 -6.605469 92.558594 -7.214844 L 92.660156 -9.144531 L 93.472656 -11.074219 C 93.675781 -11.582031 93.675781 -11.785156 93.777344 -12.292969 L 94.390625 -15.140625 L 95.101562 -17.273438 C 95.304688 -17.882812 95.40625 -18.390625 95.40625 -18.898438 L 95.609375 -20.625 L 96.421875 -23.367188 L 96.726562 -24.585938 L 96.929688 -26.519531 L 97.4375 -29.566406 L 98.148438 -32.613281 L 98.554688 -35.5625 L 99.265625 -37.085938 C 99.671875 -38 99.773438 -38.710938 99.875 -39.625 L 100.078125 -41.046875 L 100.992188 -43.992188 L 101.5 -47.042969 L 102.007812 -49.988281 L 102.210938 -53.339844 L 102.820312 -56.492188 L 103.429688 -59.234375 L 104.140625 -60.554688 C 104.550781 -61.367188 104.753906 -62.382812 104.855469 -63.398438 L 105.058594 -64.824219 L 105.464844 -66.449219 C 105.769531 -67.566406 105.363281 -68.480469 104.449219 -69.394531 C 103.53125 -70.308594 102.210938 -70.917969 100.585938 -71.019531 L 97.4375 -70.917969 L 93.878906 -70.613281 L 90.730469 -70.613281 L 89.308594 -70.917969 C 88.699219 -71.019531 87.988281 -71.019531 87.277344 -71.019531 L 84.941406 -70.917969 L 83.617188 -71.222656 C 82.804688 -71.425781 81.078125 -70.207031 78.84375 -68.074219 L 78.539062 -67.769531 L 77.929688 -66.042969 C 77.726562 -65.535156 77.726562 -65.128906 77.625 -64.519531 L 77.320312 -62.28125 L 77.320312 -60.960938 L 77.421875 -58.828125 L 77.21875 -55.882812 L 76.507812 -53.542969 C 76.304688 -52.933594 76.203125 -52.425781 76.203125 -51.714844 L 76.101562 -49.582031 L 75.796875 -47.246094 L 75.085938 -44.601562 C 74.984375 -44.195312 74.78125 -43.890625 74.78125 -43.484375 L 74.476562 -40.640625 L 73.964844 -38.507812 C 73.863281 -38.101562 73.761719 -37.492188 73.761719 -37.085938 L 73.660156 -34.644531 L 72.542969 -34.644531 L 72.542969 -37.085938 C 72.542969 -37.59375 72.441406 -38.101562 72.339844 -38.507812 L 71.832031 -40.945312 L 71.222656 -44.296875 L 70.613281 -47.144531 L 70.410156 -48.667969 C 70.308594 -49.277344 70.105469 -49.886719 69.800781 -50.597656 L 68.886719 -52.832031 L 68.378906 -56.492188 L 68.378906 -57.40625 C 68.378906 -58.421875 68.175781 -59.4375 67.769531 -60.453125 L 67.058594 -62.078125 L 67.160156 -63.601562 C 67.160156 -64.519531 67.058594 -65.433594 66.753906 -66.449219 L 66.652344 -66.753906 C 66.246094 -67.769531 65.636719 -68.785156 64.621094 -69.699219 C 63.703125 -70.613281 61.875 -71.019531 59.539062 -70.816406 L 57.40625 -71.121094 C 56.898438 -71.222656 56.289062 -71.121094 55.78125 -71.121094 L 54.050781 -71.019531 L 51.410156 -70.714844 L 48.769531 -70.917969 C 46.535156 -71.121094 44.808594 -70.714844 43.484375 -69.597656 C 42.265625 -68.480469 41.554688 -67.160156 41.148438 -65.332031 L 40.945312 -64.722656 L 40.84375 -62.078125 L 40.234375 -60.148438 C 40.132812 -59.640625 39.929688 -59.234375 39.929688 -58.828125 L 39.625 -55.882812 L 38.710938 -53.339844 L 38.101562 -50.699219 C 38 -50.089844 37.898438 -49.378906 37.898438 -48.769531 L 37.898438 -46.839844 L 37.59375 -43.789062 L 36.882812 -40.742188 L 36.273438 -37.492188 L 35.765625 -34.644531 L 34.542969 -35.257812 L 33.933594 -38 L 33.019531 -40.640625 L 32.917969 -43.992188 L 32.410156 -49.582031 L 31.597656 -52.832031 L 30.988281 -55.679688 L 31.089844 -57.8125 C 31.089844 -58.726562 30.988281 -59.4375 30.785156 -60.148438 L 30.074219 -62.484375 L 30.277344 -63.90625 C 30.378906 -64.824219 30.277344 -65.941406 29.871094 -66.855469 C 29.566406 -67.871094 28.855469 -68.683594 27.636719 -69.597656 C 26.519531 -70.410156 24.789062 -70.714844 22.859375 -70.613281 L 22.757812 -70.613281 L 21.4375 -71.121094 C 20.523438 -71.425781 19.203125 -71.324219 17.578125 -70.816406 L 16.867188 -70.613281 L 14.9375 -71.121094 C 14.425781 -71.222656 13.816406 -71.324219 13.308594 -71.324219 L 11.886719 -71.425781 C 11.277344 -71.425781 10.667969 -71.324219 10.160156 -71.222656 L 7.417969 -70.714844 L 6.097656 -70.917969 C 5.285156 -71.019531 4.265625 -70.410156 3.757812 -69.394531 C 3.148438 -68.277344 2.945312 -66.855469 3.148438 -65.128906 L 3.757812 -62.484375 L 4.367188 -59.03125 L 4.773438 -56.492188 L 5.183594 -53.746094 C 5.285156 -53.238281 5.386719 -52.730469 5.589844 -52.121094 L 6.300781 -50.496094 L 6.300781 -49.074219 C 6.300781 -48.058594 6.605469 -47.246094 7.011719 -46.433594 L 7.824219 -44.398438 L 8.535156 -41.351562 L 8.535156 -38.914062 C 8.535156 -38.40625 8.738281 -37.898438 8.839844 -37.289062 L 9.347656 -35.257812 L 9.550781 -32.308594 L 10.261719 -29.160156 L 11.175781 -26.824219 L 12.089844 -23.367188 L 12.902344 -20.625 L 13.410156 -17.78125 L 13.613281 -15.75 C 13.714844 -14.9375 13.816406 -14.324219 14.121094 -13.511719 L 14.832031 -11.988281 L 14.832031 -10.363281 C 14.832031 -9.347656 15.140625 -8.027344 15.953125 -6.707031 L 16.257812 -6.199219 L 16.5625 -4.46875 C 16.765625 -3.351562 17.375 -2.132812 18.492188 -1.117188 C 19.507812 -0.101562 21.234375 0.304688 23.0625 0 L 25.808594 0.40625 L 30.988281 0.40625 C 31.394531 0.40625 31.800781 0.40625 32.207031 0.304688 L 34.542969 -0.101562 L 37.390625 -0.101562 Z M 40.539062 0.507812 "/></g></g></g><g fill="#473c38" fill-opacity="1"><g transform="translate(488.648636, 302.660309)"><g><path d="M 71.527344 0.40625 L 72.644531 0.304688 C 73.660156 0.203125 74.679688 -0.507812 75.289062 -1.523438 C 75.898438 -2.539062 76 -4.0625 75.390625 -5.996094 L 74.578125 -8.535156 L 74.269531 -10.769531 C 74.167969 -11.683594 73.863281 -12.496094 73.558594 -13.207031 L 72.644531 -15.140625 L 71.628906 -17.78125 L 71.121094 -20.625 L 70.410156 -23.773438 L 69.800781 -27.027344 L 68.785156 -29.363281 L 68.074219 -32.917969 L 67.261719 -35.359375 L 66.144531 -38.914062 L 65.839844 -40.4375 C 65.636719 -41.25 65.332031 -41.960938 64.925781 -42.671875 L 64.007812 -44.398438 L 63.09375 -47.550781 L 62.179688 -50.496094 L 61.671875 -53.746094 L 60.859375 -56.695312 L 59.742188 -59.234375 L 58.726562 -62.992188 L 58.015625 -65.636719 L 57.609375 -66.652344 C 57 -68.175781 56.085938 -69.394531 55.171875 -70.003906 C 54.152344 -70.613281 52.628906 -70.816406 50.902344 -70.613281 L 50.496094 -70.613281 L 47.449219 -71.222656 L 45.316406 -71.425781 C 44.601562 -71.527344 43.789062 -71.425781 43.078125 -71.324219 L 40.640625 -70.816406 L 38 -70.714844 L 34.644531 -71.019531 L 27.941406 -71.019531 L 26.722656 -70.816406 C 25.910156 -70.714844 25.097656 -70.410156 24.382812 -70.003906 L 23.265625 -69.394531 C 21.84375 -68.582031 20.625 -67.363281 19.914062 -65.738281 C 19.710938 -65.332031 19.609375 -65.128906 19.507812 -64.621094 L 19 -62.484375 C 18.898438 -62.078125 18.796875 -61.570312 18.796875 -61.0625 L 18.695312 -59.132812 L 17.882812 -57.40625 C 17.578125 -56.796875 17.476562 -56.1875 17.375 -55.578125 L 16.96875 -53.035156 L 16.15625 -51.410156 C 15.75 -50.597656 15.445312 -49.988281 15.34375 -49.175781 L 15.039062 -47.042969 L 14.019531 -45.011719 C 13.816406 -44.707031 13.613281 -44.296875 13.511719 -43.890625 L 13.207031 -42.773438 C 13.003906 -41.960938 12.800781 -41.351562 12.800781 -40.539062 L 12.800781 -38.914062 L 11.886719 -35.765625 L 10.769531 -32.511719 L 10.058594 -31.191406 C 9.652344 -30.378906 9.347656 -29.363281 9.347656 -28.042969 L 9.347656 -26.519531 L 8.433594 -25.097656 C 7.824219 -24.28125 7.621094 -22.859375 7.621094 -21.234375 L 7.621094 -20.21875 L 6.808594 -19.203125 C 6.300781 -18.492188 5.792969 -17.578125 5.488281 -16.359375 L 5.285156 -15.140625 L 4.671875 -12.292969 L 3.960938 -8.738281 L 2.640625 -5.589844 C 2.640625 -5.488281 2.539062 -5.386719 2.4375 -5.285156 C 1.828125 -3.960938 1.929688 -2.742188 2.640625 -1.523438 C 3.351562 -0.304688 5.082031 0.203125 7.113281 -0.101562 L 10.261719 0 L 13.003906 -0.304688 L 14.730469 0 C 15.242188 0.101562 15.851562 0 16.460938 0 L 18.492188 -0.101562 L 21.4375 0.203125 L 25.097656 0.304688 L 26.621094 0 C 27.535156 -0.203125 28.550781 -0.710938 29.566406 -1.726562 C 30.582031 -2.640625 31.191406 -4.164062 31.394531 -6.503906 L 31.394531 -7.011719 L 35.664062 -10.464844 L 38.507812 -9.855469 C 39.015625 -9.753906 39.625 -9.652344 40.132812 -9.652344 L 42.164062 -9.652344 L 46.027344 -6.402344 L 46.433594 -4.773438 C 46.636719 -3.757812 47.550781 -2.640625 49.074219 -1.421875 L 50.699219 -0.203125 L 52.324219 0 C 52.933594 0.101562 53.542969 0.101562 54.152344 0 L 56.59375 -0.304688 L 62.28125 -0.101562 L 65.535156 -0.101562 L 70.308594 0.304688 C 70.714844 0.304688 71.121094 0.40625 71.527344 0.40625 Z M 35.96875 -29.160156 L 36.78125 -32.105469 L 37.1875 -35.359375 L 37.796875 -37.1875 C 38 -37.796875 38.101562 -38.304688 38.203125 -39.015625 L 38.507812 -41.757812 L 40.132812 -41.859375 L 40.132812 -39.421875 C 40.132812 -38.609375 40.234375 -37.796875 40.539062 -36.882812 L 41.046875 -35.460938 L 41.554688 -32.207031 L 41.960938 -29.261719 L 39.320312 -26.113281 Z M 35.96875 -29.160156 "/></g></g></g><g fill="#473c38" fill-opacity="1"><g transform="translate(566.475412, 302.660309)"><g><path d="M 71.527344 0.40625 L 72.644531 0.304688 C 73.660156 0.203125 74.679688 -0.507812 75.289062 -1.523438 C 75.898438 -2.539062 76 -4.0625 75.390625 -5.996094 L 74.578125 -8.535156 L 74.269531 -10.769531 C 74.167969 -11.683594 73.863281 -12.496094 73.558594 -13.207031 L 72.644531 -15.140625 L 71.628906 -17.78125 L 71.121094 -20.625 L 70.410156 -23.773438 L 69.800781 -27.027344 L 68.785156 -29.363281 L 68.074219 -32.917969 L 67.261719 -35.359375 L 66.144531 -38.914062 L 65.839844 -40.4375 C 65.636719 -41.25 65.332031 -41.960938 64.925781 -42.671875 L 64.007812 -44.398438 L 63.09375 -47.550781 L 62.179688 -50.496094 L 61.671875 -53.746094 L 60.859375 -56.695312 L 59.742188 -59.234375 L 58.726562 -62.992188 L 58.015625 -65.636719 L 57.609375 -66.652344 C 57 -68.175781 56.085938 -69.394531 55.171875 -70.003906 C 54.152344 -70.613281 52.628906 -70.816406 50.902344 -70.613281 L 50.496094 -70.613281 L 47.449219 -71.222656 L 45.316406 -71.425781 C 44.601562 -71.527344 43.789062 -71.425781 43.078125 -71.324219 L 40.640625 -70.816406 L 38 -70.714844 L 34.644531 -71.019531 L 27.941406 -71.019531 L 26.722656 -70.816406 C 25.910156 -70.714844 25.097656 -70.410156 24.382812 -70.003906 L 23.265625 -69.394531 C 21.84375 -68.582031 20.625 -67.363281 19.914062 -65.738281 C 19.710938 -65.332031 19.609375 -65.128906 19.507812 -64.621094 L 19 -62.484375 C 18.898438 -62.078125 18.796875 -61.570312 18.796875 -61.0625 L 18.695312 -59.132812 L 17.882812 -57.40625 C 17.578125 -56.796875 17.476562 -56.1875 17.375 -55.578125 L 16.96875 -53.035156 L 16.15625 -51.410156 C 15.75 -50.597656 15.445312 -49.988281 15.34375 -49.175781 L 15.039062 -47.042969 L 14.019531 -45.011719 C 13.816406 -44.707031 13.613281 -44.296875 13.511719 -43.890625 L 13.207031 -42.773438 C 13.003906 -41.960938 12.800781 -41.351562 12.800781 -40.539062 L 12.800781 -38.914062 L 11.886719 -35.765625 L 10.769531 -32.511719 L 10.058594 -31.191406 C 9.652344 -30.378906 9.347656 -29.363281 9.347656 -28.042969 L 9.347656 -26.519531 L 8.433594 -25.097656 C 7.824219 -24.28125 7.621094 -22.859375 7.621094 -21.234375 L 7.621094 -20.21875 L 6.808594 -19.203125 C 6.300781 -18.492188 5.792969 -17.578125 5.488281 -16.359375 L 5.285156 -15.140625 L 4.671875 -12.292969 L 3.960938 -8.738281 L 2.640625 -5.589844 C 2.640625 -5.488281 2.539062 -5.386719 2.4375 -5.285156 C 1.828125 -3.960938 1.929688 -2.742188 2.640625 -1.523438 C 3.351562 -0.304688 5.082031 0.203125 7.113281 -0.101562 L 10.261719 0 L 13.003906 -0.304688 L 14.730469 0 C 15.242188 0.101562 15.851562 0 16.460938 0 L 18.492188 -0.101562 L 21.4375 0.203125 L 25.097656 0.304688 L 26.621094 0 C 27.535156 -0.203125 28.550781 -0.710938 29.566406 -1.726562 C 30.582031 -2.640625 31.191406 -4.164062 31.394531 -6.503906 L 31.394531 -7.011719 L 35.664062 -10.464844 L 38.507812 -9.855469 C 39.015625 -9.753906 39.625 -9.652344 40.132812 -9.652344 L 42.164062 -9.652344 L 46.027344 -6.402344 L 46.433594 -4.773438 C 46.636719 -3.757812 47.550781 -2.640625 49.074219 -1.421875 L 50.699219 -0.203125 L 52.324219 0 C 52.933594 0.101562 53.542969 0.101562 54.152344 0 L 56.59375 -0.304688 L 62.28125 -0.101562 L 65.535156 -0.101562 L 70.308594 0.304688 C 70.714844 0.304688 71.121094 0.40625 71.527344 0.40625 Z M 35.96875 -29.160156 L 36.78125 -32.105469 L 37.1875 -35.359375 L 37.796875 -37.1875 C 38 -37.796875 38.101562 -38.304688 38.203125 -39.015625 L 38.507812 -41.757812 L 40.132812 -41.859375 L 40.132812 -39.421875 C 40.132812 -38.609375 40.234375 -37.796875 40.539062 -36.882812 L 41.046875 -35.460938 L 41.554688 -32.207031 L 41.960938 -29.261719 L 39.320312 -26.113281 Z M 35.96875 -29.160156 "/></g></g></g><g fill="#473c38" fill-opacity="1"><g transform="translate(644.302188, 302.660309)"><g><path d="M 71.527344 0.40625 L 72.644531 0.304688 C 73.660156 0.203125 74.679688 -0.507812 75.289062 -1.523438 C 75.898438 -2.539062 76 -4.0625 75.390625 -5.996094 L 74.578125 -8.535156 L 74.269531 -10.769531 C 74.167969 -11.683594 73.863281 -12.496094 73.558594 -13.207031 L 72.644531 -15.140625 L 71.628906 -17.78125 L 71.121094 -20.625 L 70.410156 -23.773438 L 69.800781 -27.027344 L 68.785156 -29.363281 L 68.074219 -32.917969 L 67.261719 -35.359375 L 66.144531 -38.914062 L 65.839844 -40.4375 C 65.636719 -41.25 65.332031 -41.960938 64.925781 -42.671875 L 64.007812 -44.398438 L 63.09375 -47.550781 L 62.179688 -50.496094 L 61.671875 -53.746094 L 60.859375 -56.695312 L 59.742188 -59.234375 L 58.726562 -62.992188 L 58.015625 -65.636719 L 57.609375 -66.652344 C 57 -68.175781 56.085938 -69.394531 55.171875 -70.003906 C 54.152344 -70.613281 52.628906 -70.816406 50.902344 -70.613281 L 50.496094 -70.613281 L 47.449219 -71.222656 L 45.316406 -71.425781 C 44.601562 -71.527344 43.789062 -71.425781 43.078125 -71.324219 L 40.640625 -70.816406 L 38 -70.714844 L 34.644531 -71.019531 L 27.941406 -71.019531 L 26.722656 -70.816406 C 25.910156 -70.714844 25.097656 -70.410156 24.382812 -70.003906 L 23.265625 -69.394531 C 21.84375 -68.582031 20.625 -67.363281 19.914062 -65.738281 C 19.710938 -65.332031 19.609375 -65.128906 19.507812 -64.621094 L 19 -62.484375 C 18.898438 -62.078125 18.796875 -61.570312 18.796875 -61.0625 L 18.695312 -59.132812 L 17.882812 -57.40625 C 17.578125 -56.796875 17.476562 -56.1875 17.375 -55.578125 L 16.96875 -53.035156 L 16.15625 -51.410156 C 15.75 -50.597656 15.445312 -49.988281 15.34375 -49.175781 L 15.039062 -47.042969 L 14.019531 -45.011719 C 13.816406 -44.707031 13.613281 -44.296875 13.511719 -43.890625 L 13.207031 -42.773438 C 13.003906 -41.960938 12.800781 -41.351562 12.800781 -40.539062 L 12.800781 -38.914062 L 11.886719 -35.765625 L 10.769531 -32.511719 L 10.058594 -31.191406 C 9.652344 -30.378906 9.347656 -29.363281 9.347656 -28.042969 L 9.347656 -26.519531 L 8.433594 -25.097656 C 7.824219 -24.28125 7.621094 -22.859375 7.621094 -21.234375 L 7.621094 -20.21875 L 6.808594 -19.203125 C 6.300781 -18.492188 5.792969 -17.578125 5.488281 -16.359375 L 5.285156 -15.140625 L 4.671875 -12.292969 L 3.960938 -8.738281 L 2.640625 -5.589844 C 2.640625 -5.488281 2.539062 -5.386719 2.4375 -5.285156 C 1.828125 -3.960938 1.929688 -2.742188 2.640625 -1.523438 C 3.351562 -0.304688 5.082031 0.203125 7.113281 -0.101562 L 10.261719 0 L 13.003906 -0.304688 L 14.730469 0 C 15.242188 0.101562 15.851562 0 16.460938 0 L 18.492188 -0.101562 L 21.4375 0.203125 L 25.097656 0.304688 L 26.621094 0 C 27.535156 -0.203125 28.550781 -0.710938 29.566406 -1.726562 C 30.582031 -2.640625 31.191406 -4.164062 31.394531 -6.503906 L 31.394531 -7.011719 L 35.664062 -10.464844 L 38.507812 -9.855469 C 39.015625 -9.753906 39.625 -9.652344 40.132812 -9.652344 L 42.164062 -9.652344 L 46.027344 -6.402344 L 46.433594 -4.773438 C 46.636719 -3.757812 47.550781 -2.640625 49.074219 -1.421875 L 50.699219 -0.203125 L 52.324219 0 C 52.933594 0.101562 53.542969 0.101562 54.152344 0 L 56.59375 -0.304688 L 62.28125 -0.101562 L 65.535156 -0.101562 L 70.308594 0.304688 C 70.714844 0.304688 71.121094 0.40625 71.527344 0.40625 Z M 35.96875 -29.160156 L 36.78125 -32.105469 L 37.1875 -35.359375 L 37.796875 -37.1875 C 38 -37.796875 38.101562 -38.304688 38.203125 -39.015625 L 38.507812 -41.757812 L 40.132812 -41.859375 L 40.132812 -39.421875 C 40.132812 -38.609375 40.234375 -37.796875 40.539062 -36.882812 L 41.046875 -35.460938 L 41.554688 -32.207031 L 41.960938 -29.261719 L 39.320312 -26.113281 Z M 35.96875 -29.160156 "/></g></g></g><g fill="#473c38" fill-opacity="1"><g transform="translate(722.128941, 302.660309)"><g><path d="M 11.785156 -40.335938 C 12.292969 -40.335938 12.902344 -40.234375 13.410156 -40.335938 L 14.527344 -40.539062 C 15.75 -40.742188 16.96875 -41.148438 17.984375 -41.859375 L 18.492188 -42.265625 C 19.914062 -43.28125 21.03125 -44.808594 21.4375 -46.636719 L 22.757812 -49.074219 L 23.875 -52.019531 L 24.789062 -54.457031 L 25.910156 -56.898438 L 26.925781 -58.726562 C 27.230469 -59.335938 27.535156 -60.046875 27.738281 -60.65625 L 28.144531 -62.585938 L 29.667969 -65.332031 L 30.074219 -66.652344 C 30.277344 -67.464844 30.074219 -68.582031 29.363281 -69.699219 C 28.652344 -70.816406 27.027344 -71.222656 25.300781 -70.714844 L 19 -71.222656 L 16.765625 -71.324219 L 15.953125 -71.324219 C 14.019531 -71.222656 12.394531 -70.714844 10.972656 -69.496094 C 9.855469 -68.480469 9.144531 -67.261719 8.738281 -66.042969 C 8.535156 -65.433594 8.433594 -64.722656 8.433594 -64.007812 L 8.332031 -61.875 L 7.621094 -58.726562 L 6.707031 -55.476562 L 6.097656 -53.746094 C 5.894531 -53.238281 5.792969 -52.628906 5.691406 -52.019531 L 5.488281 -50.191406 L 4.367188 -46.535156 L 4.367188 -46.332031 C 3.757812 -44.601562 4.0625 -42.875 5.082031 -41.859375 C 6.199219 -40.742188 7.621094 -40.335938 9.347656 -40.4375 Z M 11.785156 -40.335938 "/></g></g></g><g fill="#473c38" fill-opacity="1"><g transform="translate(757.38466, 302.660309)"><g><path d="M 35.054688 1.726562 C 35.765625 1.726562 36.578125 1.625 37.289062 1.421875 L 38.914062 0.914062 L 40.4375 0.8125 C 41.453125 0.710938 42.367188 0.507812 43.28125 0 L 44.707031 -0.8125 L 46.839844 -1.21875 C 47.753906 -1.421875 48.566406 -1.828125 49.277344 -2.234375 L 51.105469 -3.351562 L 53.339844 -4.980469 L 56.085938 -7.621094 L 57.507812 -9.652344 L 58.625 -10.769531 C 59.4375 -11.582031 60.046875 -12.394531 60.351562 -13.308594 L 60.65625 -14.121094 C 60.859375 -14.730469 61.0625 -15.242188 61.164062 -15.851562 L 61.46875 -17.273438 C 61.570312 -17.78125 61.671875 -18.085938 61.671875 -18.59375 L 61.671875 -23.0625 C 61.671875 -23.875 61.570312 -24.585938 61.265625 -25.503906 L 60.554688 -27.636719 L 59.335938 -30.480469 L 57.8125 -33.527344 C 57.203125 -34.75 56.492188 -35.867188 55.375 -36.578125 L 54.457031 -37.1875 L 53.238281 -38.507812 C 52.628906 -39.117188 51.917969 -39.523438 51.207031 -39.929688 L 49.074219 -41.046875 L 46.230469 -42.570312 L 43.585938 -43.585938 L 40.84375 -44.195312 L 38.203125 -46.027344 L 35.96875 -46.941406 L 36.070312 -50.597656 L 41.65625 -51.613281 L 43.890625 -50.902344 L 46.636719 -49.480469 C 48.464844 -48.261719 50.089844 -47.855469 51.207031 -48.261719 C 52.324219 -48.667969 53.238281 -49.582031 54.355469 -50.699219 L 54.664062 -51.003906 L 56.1875 -53.339844 L 57.914062 -56.085938 L 58.320312 -56.695312 C 59.234375 -58.523438 59.539062 -60.757812 58.828125 -62.890625 L 58.726562 -63.195312 L 57.914062 -64.414062 C 57.40625 -65.230469 56.492188 -66.042969 55.375 -66.550781 L 54.457031 -66.957031 L 52.425781 -68.378906 C 52.121094 -68.582031 51.613281 -68.785156 51.207031 -68.988281 L 49.378906 -69.800781 C 48.871094 -70.003906 48.261719 -70.207031 47.652344 -70.308594 L 45.621094 -70.714844 L 43.789062 -71.222656 L 42.46875 -71.527344 L 36.476562 -72.339844 L 32.207031 -72.746094 C 31.292969 -72.847656 30.378906 -72.644531 29.464844 -72.441406 L 24.28125 -71.121094 L 21.4375 -70.207031 L 19.101562 -69.496094 C 18.390625 -69.292969 17.78125 -68.988281 17.171875 -68.582031 L 15.75 -67.667969 L 14.222656 -66.957031 C 13.207031 -66.449219 12.394531 -65.839844 11.582031 -64.824219 L 8.839844 -61.46875 L 7.824219 -60.351562 C 6.910156 -59.335938 6.503906 -58.21875 6.097656 -56.898438 L 5.792969 -55.78125 L 5.183594 -53.238281 L 4.570312 -48.261719 C 4.46875 -47.246094 4.570312 -46.230469 4.875 -45.316406 L 5.488281 -43.28125 L 5.792969 -42.164062 C 5.996094 -41.453125 6.300781 -40.742188 6.707031 -40.03125 L 7.925781 -38.203125 C 8.128906 -37.796875 8.433594 -37.59375 8.738281 -37.1875 L 10.160156 -35.664062 L 11.277344 -34.339844 C 11.683594 -33.832031 12.191406 -33.425781 12.699219 -33.019531 L 14.832031 -31.597656 L 16.359375 -30.480469 C 16.867188 -30.074219 17.578125 -29.769531 18.1875 -29.566406 L 19.914062 -28.957031 L 22.25 -27.738281 C 22.65625 -27.535156 22.960938 -27.332031 23.367188 -27.230469 L 25.402344 -26.621094 L 28.550781 -25.097656 L 30.480469 -23.671875 L 30.277344 -20.117188 L 25.300781 -19.609375 L 22.046875 -19.914062 L 18.796875 -21.132812 L 15.648438 -22.453125 C 13.714844 -23.46875 12.089844 -23.875 11.074219 -23.46875 C 10.058594 -23.0625 9.347656 -21.742188 8.027344 -20.421875 L 7.925781 -20.320312 L 6.199219 -17.984375 L 4.46875 -15.546875 C 3.25 -14.121094 2.742188 -12.394531 3.148438 -10.769531 C 3.554688 -8.941406 4.164062 -7.722656 5.183594 -6.808594 C 5.691406 -6.300781 6.300781 -5.894531 6.910156 -5.589844 L 8.128906 -5.082031 L 10.363281 -3.351562 C 11.074219 -2.84375 11.785156 -2.539062 12.597656 -2.234375 L 14.121094 -1.726562 L 17.070312 -0.710938 L 19.710938 0.304688 L 22.554688 1.015625 C 23.164062 1.117188 23.773438 1.21875 24.382812 1.21875 L 26.621094 1.320312 L 29.363281 1.625 Z M 35.054688 1.726562 "/></g></g></g><g fill="#473c38" fill-opacity="1"><g transform="translate(822.104839, 302.660309)"><g/></g></g><g fill="#473c38" fill-opacity="1"><g transform="translate(852.585305, 302.660309)"><g><path d="M 44.195312 0.40625 L 46.433594 0.101562 L 48.972656 0.203125 L 52.222656 0.101562 L 54.664062 0.304688 C 55.171875 0.304688 55.578125 0.304688 56.085938 0.203125 L 56.898438 0.101562 C 57.914062 -0.101562 58.929688 -0.609375 60.046875 -1.625 C 61.164062 -2.640625 61.671875 -3.960938 61.671875 -5.386719 L 61.773438 -8.941406 L 61.773438 -10.363281 C 61.773438 -10.972656 61.671875 -11.582031 61.570312 -12.089844 L 60.960938 -14.730469 L 61.265625 -16.15625 C 61.46875 -17.070312 60.351562 -18.492188 58.320312 -20.117188 L 56.492188 -20.421875 C 55.882812 -20.523438 55.171875 -20.625 54.457031 -20.523438 L 52.121094 -20.320312 L 46.128906 -20.726562 L 42.875 -20.625 L 40.03125 -20.421875 L 36.984375 -20.015625 L 33.425781 -19.914062 L 30.886719 -22.960938 L 33.628906 -24.996094 L 36.78125 -25.300781 L 38.914062 -25.199219 C 39.320312 -25.199219 39.726562 -25.199219 40.132812 -25.300781 L 42.773438 -25.605469 L 44.910156 -25.402344 C 45.417969 -25.300781 45.824219 -25.300781 46.230469 -25.300781 L 48.871094 -25.503906 L 51.816406 -25.097656 L 53.339844 -25.402344 C 54.253906 -25.605469 55.171875 -26.011719 55.882812 -26.722656 C 56.59375 -27.433594 57.101562 -28.550781 57.304688 -30.277344 C 57.40625 -30.785156 57.304688 -31.191406 57.304688 -31.699219 L 57.203125 -33.933594 L 57.40625 -37.1875 L 57.609375 -39.320312 C 57.710938 -40.03125 57.710938 -40.539062 57.609375 -41.148438 C 57.203125 -42.671875 55.984375 -44.195312 54.050781 -45.519531 L 52.832031 -45.824219 C 52.019531 -46.027344 51.003906 -45.925781 49.988281 -45.722656 L 48.667969 -45.417969 L 45.417969 -45.214844 L 42.875 -45.214844 L 39.929688 -45.519531 L 37.59375 -45.925781 C 37.085938 -46.027344 36.578125 -46.027344 36.070312 -46.027344 L 34.238281 -45.925781 L 30.378906 -47.753906 L 34.035156 -50.699219 L 36.679688 -50.597656 L 40.539062 -50.902344 L 42.875 -50.699219 C 43.382812 -50.597656 43.890625 -50.597656 44.398438 -50.699219 L 46.535156 -50.902344 L 48.363281 -50.597656 C 49.074219 -50.496094 49.988281 -50.496094 50.699219 -50.597656 L 53.238281 -50.902344 L 54.765625 -50.902344 C 55.78125 -50.902344 57.203125 -51.613281 58.929688 -53.339844 L 59.4375 -53.847656 L 59.640625 -55.273438 C 59.742188 -55.78125 59.640625 -56.289062 59.640625 -56.898438 L 59.4375 -59.742188 L 59.03125 -62.382812 L 58.828125 -65.738281 L 59.132812 -66.753906 C 59.335938 -67.363281 58.828125 -68.378906 58.015625 -69.496094 C 57.101562 -70.511719 55.273438 -71.121094 53.035156 -71.121094 L 49.785156 -70.917969 L 48.566406 -71.222656 C 47.855469 -71.425781 47.042969 -71.425781 46.230469 -71.425781 L 43.6875 -71.324219 L 40.945312 -71.019531 L 39.421875 -71.222656 C 38.507812 -71.324219 37.59375 -71.324219 36.679688 -71.121094 L 35.257812 -70.816406 L 33.019531 -71.121094 C 32.308594 -71.222656 31.496094 -71.222656 30.785156 -71.121094 L 29.058594 -70.917969 L 27.332031 -71.222656 C 26.214844 -71.425781 24.996094 -71.324219 23.875 -71.019531 L 22.65625 -70.714844 L 19.8125 -71.222656 L 17.882812 -71.324219 C 17.273438 -71.324219 16.664062 -71.425781 16.054688 -71.324219 L 13.816406 -70.917969 L 10.769531 -71.121094 C 10.363281 -71.121094 9.957031 -71.222656 9.550781 -71.121094 C 7.824219 -70.917969 6.402344 -70.308594 5.691406 -69.292969 C 4.773438 -68.175781 4.46875 -66.652344 4.875 -64.621094 L 4.46875 -62.992188 C 4.164062 -61.976562 4.265625 -60.453125 4.875 -58.929688 L 4.570312 -55.78125 L 4.46875 -52.628906 L 4.773438 -49.175781 L 4.46875 -47.855469 C 4.265625 -47.144531 4.265625 -46.230469 4.367188 -45.519531 L 4.570312 -43.585938 L 4.671875 -39.726562 L 4.875 -37.085938 L 4.773438 -34.238281 L 4.46875 -31.191406 L 4.265625 -28.753906 C 4.265625 -28.246094 4.164062 -27.738281 4.265625 -27.128906 L 4.570312 -24.382812 L 4.265625 -22.859375 C 4.164062 -22.351562 4.164062 -21.742188 4.164062 -21.234375 L 4.367188 -18.1875 L 4.164062 -16.257812 C 4.164062 -15.851562 4.0625 -15.34375 4.0625 -14.9375 L 4.265625 -12.089844 L 4.265625 -10.261719 C 4.265625 -9.855469 4.265625 -9.550781 4.367188 -9.042969 L 4.773438 -6.605469 L 4.671875 -5.082031 C 4.570312 -3.960938 5.082031 -2.84375 5.894531 -1.523438 C 6.707031 -0.304688 8.636719 0.101562 10.667969 -0.40625 L 12.089844 -0.203125 C 12.699219 -0.101562 13.207031 -0.101562 13.816406 -0.203125 L 16.054688 -0.40625 L 17.578125 -0.101562 C 18.59375 0.101562 19.507812 0.304688 20.523438 0.101562 L 22.859375 -0.304688 L 23.875 0.101562 C 24.585938 0.40625 25.605469 0.304688 26.824219 0.101562 L 28.550781 -0.101562 L 31.292969 -0.304688 L 32.917969 0.101562 C 33.933594 0.40625 35.15625 0.304688 36.78125 -0.304688 L 36.984375 -0.40625 L 42.164062 0.304688 C 42.875 0.40625 43.484375 0.507812 44.195312 0.40625 Z M 44.195312 0.40625 "/></g></g></g><g fill="#473c38" fill-opacity="1"><g transform="translate(918.423114, 302.660309)"><g><path d="M 44.195312 0.40625 C 44.910156 0.40625 45.621094 0.304688 46.332031 0.101562 L 46.839844 0 C 47.855469 -0.304688 48.871094 -1.117188 49.988281 -2.335938 L 50.394531 -2.742188 L 50.699219 -4.265625 C 50.902344 -5.082031 50.902344 -5.996094 50.800781 -6.910156 L 50.496094 -9.449219 L 50.394531 -12.089844 L 51.308594 -15.546875 L 51.207031 -17.273438 C 51.207031 -17.78125 51.207031 -17.984375 51.105469 -18.492188 L 50.496094 -21.132812 L 50.597656 -23.875 L 52.628906 -30.582031 L 53.441406 -31.699219 C 53.949219 -32.511719 54.253906 -33.121094 54.457031 -34.035156 L 54.96875 -35.765625 L 56.898438 -38.710938 L 58.421875 -41.453125 L 59.742188 -43.585938 L 61.265625 -46.128906 L 62.890625 -48.972656 L 64.109375 -50.902344 C 64.414062 -51.410156 64.722656 -51.917969 64.925781 -52.425781 L 65.839844 -54.96875 L 67.261719 -57.304688 L 68.988281 -59.742188 L 70.511719 -62.484375 L 71.832031 -65.738281 L 73.660156 -68.378906 L 73.152344 -69.699219 C 72.847656 -70.511719 71.324219 -71.121094 69.191406 -71.222656 L 65.636719 -71.324219 L 63.09375 -71.019531 L 60.25 -70.714844 L 57 -70.613281 L 55.476562 -71.019531 C 54.457031 -71.222656 53.339844 -71.121094 52.222656 -70.917969 L 50.699219 -70.613281 L 49.175781 -71.121094 C 48.160156 -71.425781 46.839844 -70.917969 45.621094 -69.800781 C 44.296875 -68.683594 43.382812 -67.160156 43.078125 -65.230469 L 42.164062 -61.976562 L 40.742188 -59.335938 L 39.625 -56.695312 L 38.304688 -54.050781 L 36.78125 -53.238281 L 36.171875 -56.1875 C 36.070312 -56.59375 35.96875 -57.203125 35.765625 -57.609375 L 34.953125 -59.742188 L 33.527344 -62.28125 L 33.222656 -64.007812 C 33.019531 -65.128906 32.511719 -66.144531 31.800781 -67.058594 L 31.496094 -67.566406 C 31.292969 -67.871094 30.988281 -68.175781 30.785156 -68.378906 L 29.566406 -69.699219 C 28.449219 -70.714844 26.824219 -71.324219 25.097656 -71.324219 C 24.484375 -71.324219 23.875 -71.324219 23.265625 -71.121094 L 21.234375 -70.613281 L 18.898438 -71.222656 C 18.289062 -71.425781 17.78125 -71.425781 17.273438 -71.425781 L 15.039062 -71.527344 L 12.089844 -71.527344 L 9.753906 -71.425781 C 9.246094 -71.425781 8.636719 -71.324219 8.128906 -71.121094 L 6.503906 -70.613281 L 3.554688 -70.714844 L 2.4375 -69.597656 C 1.726562 -68.988281 1.929688 -67.160156 3.046875 -65.128906 L 4.773438 -62.789062 L 6.605469 -59.84375 L 8.027344 -57.710938 L 8.433594 -55.984375 C 8.738281 -54.765625 9.246094 -53.847656 10.058594 -52.933594 L 10.464844 -52.425781 L 12.699219 -49.277344 L 14.121094 -46.230469 L 15.546875 -43.28125 L 16.359375 -41.25 L 17.070312 -39.929688 L 18.085938 -38.507812 L 20.320312 -35.765625 L 21.4375 -33.324219 L 23.0625 -30.175781 L 24.179688 -24.585938 L 24.28125 -22.148438 C 24.28125 -21.742188 24.382812 -21.132812 24.484375 -20.726562 L 24.894531 -18.695312 L 24.28125 -16.5625 C 24.078125 -15.851562 23.976562 -15.140625 23.976562 -14.425781 L 23.976562 -13.308594 C 23.976562 -12.800781 24.078125 -12.191406 24.179688 -11.683594 L 24.789062 -8.839844 L 24.382812 -6.808594 C 24.28125 -6.199219 24.28125 -5.386719 24.28125 -4.773438 L 24.28125 -4.265625 C 24.28125 -3.148438 24.789062 -2.234375 25.910156 -1.320312 C 26.925781 -0.40625 28.652344 0 30.378906 -0.203125 L 31.902344 0.203125 C 32.917969 0.40625 34.035156 0.40625 35.359375 0 L 36.476562 -0.304688 L 39.21875 -0.304688 L 41.351562 0.203125 C 41.757812 0.304688 42.265625 0.304688 42.671875 0.304688 Z M 44.195312 0.40625 "/></g></g></g><g fill="#473c38" fill-opacity="1"><g transform="translate(994.116254, 302.660309)"><g><path d="M 44.195312 0.40625 L 46.433594 0.101562 L 48.972656 0.203125 L 52.222656 0.101562 L 54.664062 0.304688 C 55.171875 0.304688 55.578125 0.304688 56.085938 0.203125 L 56.898438 0.101562 C 57.914062 -0.101562 58.929688 -0.609375 60.046875 -1.625 C 61.164062 -2.640625 61.671875 -3.960938 61.671875 -5.386719 L 61.773438 -8.941406 L 61.773438 -10.363281 C 61.773438 -10.972656 61.671875 -11.582031 61.570312 -12.089844 L 60.960938 -14.730469 L 61.265625 -16.15625 C 61.46875 -17.070312 60.351562 -18.492188 58.320312 -20.117188 L 56.492188 -20.421875 C 55.882812 -20.523438 55.171875 -20.625 54.457031 -20.523438 L 52.121094 -20.320312 L 46.128906 -20.726562 L 42.875 -20.625 L 40.03125 -20.421875 L 36.984375 -20.015625 L 33.425781 -19.914062 L 30.886719 -22.960938 L 33.628906 -24.996094 L 36.78125 -25.300781 L 38.914062 -25.199219 C 39.320312 -25.199219 39.726562 -25.199219 40.132812 -25.300781 L 42.773438 -25.605469 L 44.910156 -25.402344 C 45.417969 -25.300781 45.824219 -25.300781 46.230469 -25.300781 L 48.871094 -25.503906 L 51.816406 -25.097656 L 53.339844 -25.402344 C 54.253906 -25.605469 55.171875 -26.011719 55.882812 -26.722656 C 56.59375 -27.433594 57.101562 -28.550781 57.304688 -30.277344 C 57.40625 -30.785156 57.304688 -31.191406 57.304688 -31.699219 L 57.203125 -33.933594 L 57.40625 -37.1875 L 57.609375 -39.320312 C 57.710938 -40.03125 57.710938 -40.539062 57.609375 -41.148438 C 57.203125 -42.671875 55.984375 -44.195312 54.050781 -45.519531 L 52.832031 -45.824219 C 52.019531 -46.027344 51.003906 -45.925781 49.988281 -45.722656 L 48.667969 -45.417969 L 45.417969 -45.214844 L 42.875 -45.214844 L 39.929688 -45.519531 L 37.59375 -45.925781 C 37.085938 -46.027344 36.578125 -46.027344 36.070312 -46.027344 L 34.238281 -45.925781 L 30.378906 -47.753906 L 34.035156 -50.699219 L 36.679688 -50.597656 L 40.539062 -50.902344 L 42.875 -50.699219 C 43.382812 -50.597656 43.890625 -50.597656 44.398438 -50.699219 L 46.535156 -50.902344 L 48.363281 -50.597656 C 49.074219 -50.496094 49.988281 -50.496094 50.699219 -50.597656 L 53.238281 -50.902344 L 54.765625 -50.902344 C 55.78125 -50.902344 57.203125 -51.613281 58.929688 -53.339844 L 59.4375 -53.847656 L 59.640625 -55.273438 C 59.742188 -55.78125 59.640625 -56.289062 59.640625 -56.898438 L 59.4375 -59.742188 L 59.03125 -62.382812 L 58.828125 -65.738281 L 59.132812 -66.753906 C 59.335938 -67.363281 58.828125 -68.378906 58.015625 -69.496094 C 57.101562 -70.511719 55.273438 -71.121094 53.035156 -71.121094 L 49.785156 -70.917969 L 48.566406 -71.222656 C 47.855469 -71.425781 47.042969 -71.425781 46.230469 -71.425781 L 43.6875 -71.324219 L 40.945312 -71.019531 L 39.421875 -71.222656 C 38.507812 -71.324219 37.59375 -71.324219 36.679688 -71.121094 L 35.257812 -70.816406 L 33.019531 -71.121094 C 32.308594 -71.222656 31.496094 -71.222656 30.785156 -71.121094 L 29.058594 -70.917969 L 27.332031 -71.222656 C 26.214844 -71.425781 24.996094 -71.324219 23.875 -71.019531 L 22.65625 -70.714844 L 19.8125 -71.222656 L 17.882812 -71.324219 C 17.273438 -71.324219 16.664062 -71.425781 16.054688 -71.324219 L 13.816406 -70.917969 L 10.769531 -71.121094 C 10.363281 -71.121094 9.957031 -71.222656 9.550781 -71.121094 C 7.824219 -70.917969 6.402344 -70.308594 5.691406 -69.292969 C 4.773438 -68.175781 4.46875 -66.652344 4.875 -64.621094 L 4.46875 -62.992188 C 4.164062 -61.976562 4.265625 -60.453125 4.875 -58.929688 L 4.570312 -55.78125 L 4.46875 -52.628906 L 4.773438 -49.175781 L 4.46875 -47.855469 C 4.265625 -47.144531 4.265625 -46.230469 4.367188 -45.519531 L 4.570312 -43.585938 L 4.671875 -39.726562 L 4.875 -37.085938 L 4.773438 -34.238281 L 4.46875 -31.191406 L 4.265625 -28.753906 C 4.265625 -28.246094 4.164062 -27.738281 4.265625 -27.128906 L 4.570312 -24.382812 L 4.265625 -22.859375 C 4.164062 -22.351562 4.164062 -21.742188 4.164062 -21.234375 L 4.367188 -18.1875 L 4.164062 -16.257812 C 4.164062 -15.851562 4.0625 -15.34375 4.0625 -14.9375 L 4.265625 -12.089844 L 4.265625 -10.261719 C 4.265625 -9.855469 4.265625 -9.550781 4.367188 -9.042969 L 4.773438 -6.605469 L 4.671875 -5.082031 C 4.570312 -3.960938 5.082031 -2.84375 5.894531 -1.523438 C 6.707031 -0.304688 8.636719 0.101562 10.667969 -0.40625 L 12.089844 -0.203125 C 12.699219 -0.101562 13.207031 -0.101562 13.816406 -0.203125 L 16.054688 -0.40625 L 17.578125 -0.101562 C 18.59375 0.101562 19.507812 0.304688 20.523438 0.101562 L 22.859375 -0.304688 L 23.875 0.101562 C 24.585938 0.40625 25.605469 0.304688 26.824219 0.101562 L 28.550781 -0.101562 L 31.292969 -0.304688 L 32.917969 0.101562 C 33.933594 0.40625 35.15625 0.304688 36.78125 -0.304688 L 36.984375 -0.40625 L 42.164062 0.304688 C 42.875 0.40625 43.484375 0.507812 44.195312 0.40625 Z M 44.195312 0.40625 "/></g></g></g><g fill="#473c38" fill-opacity="1"><g transform="translate(1059.954062, 302.660309)"><g><path d="M 35.054688 1.726562 C 35.765625 1.726562 36.578125 1.625 37.289062 1.421875 L 38.914062 0.914062 L 40.4375 0.8125 C 41.453125 0.710938 42.367188 0.507812 43.28125 0 L 44.707031 -0.8125 L 46.839844 -1.21875 C 47.753906 -1.421875 48.566406 -1.828125 49.277344 -2.234375 L 51.105469 -3.351562 L 53.339844 -4.980469 L 56.085938 -7.621094 L 57.507812 -9.652344 L 58.625 -10.769531 C 59.4375 -11.582031 60.046875 -12.394531 60.351562 -13.308594 L 60.65625 -14.121094 C 60.859375 -14.730469 61.0625 -15.242188 61.164062 -15.851562 L 61.46875 -17.273438 C 61.570312 -17.78125 61.671875 -18.085938 61.671875 -18.59375 L 61.671875 -23.0625 C 61.671875 -23.875 61.570312 -24.585938 61.265625 -25.503906 L 60.554688 -27.636719 L 59.335938 -30.480469 L 57.8125 -33.527344 C 57.203125 -34.75 56.492188 -35.867188 55.375 -36.578125 L 54.457031 -37.1875 L 53.238281 -38.507812 C 52.628906 -39.117188 51.917969 -39.523438 51.207031 -39.929688 L 49.074219 -41.046875 L 46.230469 -42.570312 L 43.585938 -43.585938 L 40.84375 -44.195312 L 38.203125 -46.027344 L 35.96875 -46.941406 L 36.070312 -50.597656 L 41.65625 -51.613281 L 43.890625 -50.902344 L 46.636719 -49.480469 C 48.464844 -48.261719 50.089844 -47.855469 51.207031 -48.261719 C 52.324219 -48.667969 53.238281 -49.582031 54.355469 -50.699219 L 54.664062 -51.003906 L 56.1875 -53.339844 L 57.914062 -56.085938 L 58.320312 -56.695312 C 59.234375 -58.523438 59.539062 -60.757812 58.828125 -62.890625 L 58.726562 -63.195312 L 57.914062 -64.414062 C 57.40625 -65.230469 56.492188 -66.042969 55.375 -66.550781 L 54.457031 -66.957031 L 52.425781 -68.378906 C 52.121094 -68.582031 51.613281 -68.785156 51.207031 -68.988281 L 49.378906 -69.800781 C 48.871094 -70.003906 48.261719 -70.207031 47.652344 -70.308594 L 45.621094 -70.714844 L 43.789062 -71.222656 L 42.46875 -71.527344 L 36.476562 -72.339844 L 32.207031 -72.746094 C 31.292969 -72.847656 30.378906 -72.644531 29.464844 -72.441406 L 24.28125 -71.121094 L 21.4375 -70.207031 L 19.101562 -69.496094 C 18.390625 -69.292969 17.78125 -68.988281 17.171875 -68.582031 L 15.75 -67.667969 L 14.222656 -66.957031 C 13.207031 -66.449219 12.394531 -65.839844 11.582031 -64.824219 L 8.839844 -61.46875 L 7.824219 -60.351562 C 6.910156 -59.335938 6.503906 -58.21875 6.097656 -56.898438 L 5.792969 -55.78125 L 5.183594 -53.238281 L 4.570312 -48.261719 C 4.46875 -47.246094 4.570312 -46.230469 4.875 -45.316406 L 5.488281 -43.28125 L 5.792969 -42.164062 C 5.996094 -41.453125 6.300781 -40.742188 6.707031 -40.03125 L 7.925781 -38.203125 C 8.128906 -37.796875 8.433594 -37.59375 8.738281 -37.1875 L 10.160156 -35.664062 L 11.277344 -34.339844 C 11.683594 -33.832031 12.191406 -33.425781 12.699219 -33.019531 L 14.832031 -31.597656 L 16.359375 -30.480469 C 16.867188 -30.074219 17.578125 -29.769531 18.1875 -29.566406 L 19.914062 -28.957031 L 22.25 -27.738281 C 22.65625 -27.535156 22.960938 -27.332031 23.367188 -27.230469 L 25.402344 -26.621094 L 28.550781 -25.097656 L 30.480469 -23.671875 L 30.277344 -20.117188 L 25.300781 -19.609375 L 22.046875 -19.914062 L 18.796875 -21.132812 L 15.648438 -22.453125 C 13.714844 -23.46875 12.089844 -23.875 11.074219 -23.46875 C 10.058594 -23.0625 9.347656 -21.742188 8.027344 -20.421875 L 7.925781 -20.320312 L 6.199219 -17.984375 L 4.46875 -15.546875 C 3.25 -14.121094 2.742188 -12.394531 3.148438 -10.769531 C 3.554688 -8.941406 4.164062 -7.722656 5.183594 -6.808594 C 5.691406 -6.300781 6.300781 -5.894531 6.910156 -5.589844 L 8.128906 -5.082031 L 10.363281 -3.351562 C 11.074219 -2.84375 11.785156 -2.539062 12.597656 -2.234375 L 14.121094 -1.726562 L 17.070312 -0.710938 L 19.710938 0.304688 L 22.554688 1.015625 C 23.164062 1.117188 23.773438 1.21875 24.382812 1.21875 L 26.621094 1.320312 L 29.363281 1.625 Z M 35.054688 1.726562 "/></g></g></g></svg>