<svg xmlns="http://www.w3.org/2000/svg" xmlns:xlink="http://www.w3.org/1999/xlink" width="777" zoomAndPan="magnify" viewBox="0 0 582.75 582.749988" height="777" preserveAspectRatio="xMidYMid meet" version="1.0"><defs><clipPath id="db233301bf"><path d="M 0 0 L 582.5 0 L 582.5 582.5 L 0 582.5 Z M 0 0 " clip-rule="nonzero"/></clipPath></defs><g clip-path="url(#db233301bf)"><path fill="#ffffff" d="M 0 0 L 582.75 0 L 582.75 1173 L 0 1173 Z M 0 0 " fill-opacity="1" fill-rule="nonzero"/><path fill="#ffffff" d="M 0 0 L 582.75 0 L 582.75 582.75 L 0 582.75 Z M 0 0 " fill-opacity="1" fill-rule="nonzero"/><path fill="#ffffff" d="M 0 0 L 582.75 0 L 582.75 582.75 L 0 582.75 Z M 0 0 " fill-opacity="1" fill-rule="nonzero"/><path fill="#131722" d="M 0 0 L 582.75 0 L 582.75 582.75 L 0 582.75 Z M 0 0 " fill-opacity="1" fill-rule="nonzero"/></g><path stroke-linecap="butt" transform="matrix(18.798384, 0, 0, 18.798384, 0.000006, 0)" fill-opacity="1" fill="#131722" fill-rule="nonzero" stroke-linejoin="miter" d="M 0.999919 1.500087 L 7.999981 1.500087 M 10.000028 1.500087 L 10.999948 1.500087 M 12.000075 1.500087 L 12.999995 1.500087 M 13.999915 1.500087 L 15.000042 1.500087 M 15.999962 1.500087 L 20.999976 1.500087 M 23.000024 1.500087 L 30.000085 1.500087 M 0.999919 2.500007 L 2.000047 2.500007 M 7.000061 2.500007 L 7.999981 2.500007 M 10.999948 2.500007 L 12.999995 2.500007 M 15.000042 2.500007 L 18.999929 2.500007 M 20.999976 2.500007 L 22.000104 2.500007 M 23.000024 2.500007 L 23.999943 2.500007 M 28.999958 2.500007 L 30.000085 2.500007 M 0.999919 3.499927 L 2.000047 3.499927 M 2.999967 3.499927 L 5.999934 3.499927 M 7.000061 3.499927 L 7.999981 3.499927 M 8.999901 3.499927 L 13.999915 3.499927 M 15.000042 3.499927 L 18.000009 3.499927 M 20.000057 3.499927 L 20.999976 3.499927 M 23.000024 3.499927 L 23.999943 3.499927 M 25.000071 3.499927 L 28.000038 3.499927 M 28.999958 3.499927 L 30.000085 3.499927 M 0.999919 4.500054 L 2.000047 4.500054 M 2.999967 4.500054 L 5.999934 4.500054 M 7.000061 4.500054 L 7.999981 4.500054 M 8.999901 4.500054 L 10.000028 4.500054 M 10.999948 4.500054 L 12.000075 4.500054 M 12.999995 4.500054 L 13.999915 4.500054 M 15.999962 4.500054 L 18.999929 4.500054 M 20.999976 4.500054 L 22.000104 4.500054 M 23.000024 4.500054 L 23.999943 4.500054 M 25.000071 4.500054 L 28.000038 4.500054 M 28.999958 4.500054 L 30.000085 4.500054 M 0.999919 5.499974 L 2.000047 5.499974 M 2.999967 5.499974 L 5.999934 5.499974 M 7.000061 5.499974 L 7.999981 5.499974 M 8.999901 5.499974 L 10.999948 5.499974 M 12.000075 5.499974 L 15.000042 5.499974 M 17.00009 5.499974 L 22.000104 5.499974 M 23.000024 5.499974 L 23.999943 5.499974 M 25.000071 5.499974 L 28.000038 5.499974 M 28.999958 5.499974 L 30.000085 5.499974 M 0.999919 6.500102 L 2.000047 6.500102 M 7.000061 6.500102 L 7.999981 6.500102 M 8.999901 6.500102 L 10.999948 6.500102 M 12.000075 6.500102 L 20.000057 6.500102 M 20.999976 6.500102 L 22.000104 6.500102 M 23.000024 6.500102 L 23.999943 6.500102 M 28.999958 6.500102 L 30.000085 6.500102 M 0.999919 7.500021 L 7.999981 7.500021 M 8.999901 7.500021 L 10.000028 7.500021 M 10.999948 7.500021 L 12.000075 7.500021 M 12.999995 7.500021 L 13.999915 7.500021 M 15.000042 7.500021 L 15.999962 7.500021 M 17.00009 7.500021 L 18.000009 7.500021 M 18.999929 7.500021 L 20.000057 7.500021 M 20.999976 7.500021 L 22.000104 7.500021 M 23.000024 7.500021 L 30.000085 7.500021 M 8.999901 8.499941 L 10.999948 8.499941 M 13.999915 8.499941 L 15.000042 8.499941 M 15.999962 8.499941 L 18.000009 8.499941 M 20.000057 8.499941 L 22.000104 8.499941 M 0.999919 9.500069 L 2.000047 9.500069 M 2.999967 9.500069 L 7.999981 9.500069 M 10.000028 9.500069 L 13.999915 9.500069 M 15.000042 9.500069 L 20.999976 9.500069 M 23.000024 9.500069 L 28.000038 9.500069 M 10.000028 10.499988 L 10.999948 10.499988 M 12.000075 10.499988 L 12.999995 10.499988 M 15.999962 10.499988 L 18.000009 10.499988 M 20.000057 10.499988 L 20.999976 10.499988 M 22.000104 10.499988 L 25.999991 10.499988 M 28.999958 10.499988 L 30.000085 10.499988 M 0.999919 11.499908 L 2.999967 11.499908 M 4.000094 11.499908 L 7.999981 11.499908 M 8.999901 11.499908 L 10.000028 11.499908 M 12.000075 11.499908 L 12.999995 11.499908 M 15.999962 11.499908 L 18.000009 11.499908 M 18.999929 11.499908 L 20.000057 11.499908 M 20.999976 11.499908 L 23.000024 11.499908 M 2.000047 12.500036 L 2.999967 12.500036 M 4.000094 12.500036 L 5.000014 12.500036 M 5.999934 12.500036 L 7.000061 12.500036 M 8.999901 12.500036 L 10.999948 12.500036 M 12.999995 12.500036 L 13.999915 12.500036 M 15.000042 12.500036 L 18.000009 12.500036 M 20.000057 12.500036 L 22.000104 12.500036 M 23.000024 12.500036 L 25.000071 12.500036 M 25.999991 12.500036 L 26.99991 12.500036 M 28.000038 12.500036 L 28.999958 12.500036 M 2.999967 13.499955 L 5.000014 13.499955 M 7.000061 13.499955 L 7.999981 13.499955 M 10.999948 13.499955 L 13.999915 13.499955 M 15.999962 13.499955 L 17.00009 13.499955 M 18.000009 13.499955 L 20.999976 13.499955 M 25.999991 13.499955 L 28.000038 13.499955 M 0.999919 14.500083 L 2.999967 14.500083 M 4.000094 14.500083 L 5.000014 14.500083 M 5.999934 14.500083 L 7.000061 14.500083 M 7.999981 14.500083 L 12.000075 14.500083 M 13.999915 14.500083 L 15.999962 14.500083 M 17.00009 14.500083 L 18.000009 14.500083 M 20.000057 14.500083 L 22.000104 14.500083 M 23.000024 14.500083 L 23.999943 14.500083 M 25.000071 14.500083 L 25.999991 14.500083 M 28.999958 14.500083 L 30.000085 14.500083 M 2.000047 15.500003 L 4.000094 15.500003 M 5.000014 15.500003 L 7.999981 15.500003 M 8.999901 15.500003 L 10.000028 15.500003 M 13.999915 15.500003 L 20.000057 15.500003 M 22.000104 15.500003 L 23.000024 15.500003 M 23.999943 15.500003 L 25.000071 15.500003 M 25.999991 15.500003 L 28.000038 15.500003 M 2.999967 16.499922 L 5.000014 16.499922 M 12.000075 16.499922 L 12.999995 16.499922 M 13.999915 16.499922 L 15.000042 16.499922 M 15.999962 16.499922 L 18.000009 16.499922 M 18.999929 16.499922 L 20.000057 16.499922 M 20.999976 16.499922 L 25.999991 16.499922 M 28.000038 16.499922 L 28.999958 16.499922 M 0.999919 17.50005 L 8.999901 17.50005 M 10.000028 17.50005 L 10.999948 17.50005 M 12.000075 17.50005 L 13.999915 17.50005 M 15.000042 17.50005 L 15.999962 17.50005 M 18.000009 17.50005 L 18.999929 17.50005 M 23.999943 17.50005 L 25.000071 17.50005 M 25.999991 17.50005 L 28.000038 17.50005 M 0.999919 18.49997 L 2.000047 18.49997 M 4.000094 18.49997 L 5.000014 18.49997 M 5.999934 18.49997 L 7.000061 18.49997 M 8.999901 18.49997 L 10.000028 18.49997 M 12.999995 18.49997 L 13.999915 18.49997 M 15.999962 18.49997 L 18.000009 18.49997 M 18.999929 18.49997 L 25.999991 18.49997 M 26.99991 18.49997 L 28.000038 18.49997 M 28.999958 18.49997 L 30.000085 18.49997 M 0.999919 19.500097 L 2.000047 19.500097 M 5.000014 19.500097 L 7.999981 19.500097 M 8.999901 19.500097 L 10.000028 19.500097 M 10.999948 19.500097 L 12.000075 19.500097 M 15.999962 19.500097 L 18.000009 19.500097 M 22.000104 19.500097 L 23.000024 19.500097 M 23.999943 19.500097 L 25.000071 19.500097 M 26.99991 19.500097 L 28.000038 19.500097 M 0.999919 20.500017 L 2.000047 20.500017 M 5.000014 20.500017 L 7.000061 20.500017 M 7.999981 20.500017 L 8.999901 20.500017 M 10.000028 20.500017 L 12.000075 20.500017 M 12.999995 20.500017 L 13.999915 20.500017 M 15.000042 20.500017 L 18.000009 20.500017 M 20.000057 20.500017 L 22.000104 20.500017 M 23.999943 20.500017 L 25.999991 20.500017 M 28.000038 20.500017 L 28.999958 20.500017 M 0.999919 21.499937 L 2.000047 21.499937 M 4.000094 21.499937 L 7.999981 21.499937 M 12.999995 21.499937 L 13.999915 21.499937 M 15.999962 21.499937 L 17.00009 21.499937 M 18.000009 21.499937 L 25.999991 21.499937 M 26.99991 21.499937 L 30.000085 21.499937 M 8.999901 22.500064 L 12.999995 22.500064 M 13.999915 22.500064 L 18.000009 22.500064 M 20.999976 22.500064 L 22.000104 22.500064 M 25.000071 22.500064 L 30.000085 22.500064 M 0.999919 23.499984 L 7.999981 23.499984 M 10.999948 23.499984 L 12.999995 23.499984 M 13.999915 23.499984 L 22.000104 23.499984 M 23.000024 23.499984 L 23.999943 23.499984 M 25.000071 23.499984 L 28.000038 23.499984 M 0.999919 24.499903 L 2.000047 24.499903 M 7.000061 24.499903 L 7.999981 24.499903 M 8.999901 24.499903 L 10.000028 24.499903 M 13.999915 24.499903 L 15.000042 24.499903 M 17.00009 24.499903 L 18.000009 24.499903 M 20.999976 24.499903 L 22.000104 24.499903 M 25.000071 24.499903 L 25.999991 24.499903 M 0.999919 25.500031 L 2.000047 25.500031 M 2.999967 25.500031 L 5.999934 25.500031 M 7.000061 25.500031 L 7.999981 25.500031 M 8.999901 25.500031 L 10.000028 25.500031 M 15.000042 25.500031 L 18.999929 25.500031 M 20.999976 25.500031 L 25.999991 25.500031 M 26.99991 25.500031 L 28.000038 25.500031 M 0.999919 26.499951 L 2.000047 26.499951 M 2.999967 26.499951 L 5.999934 26.499951 M 7.000061 26.499951 L 7.999981 26.499951 M 8.999901 26.499951 L 10.000028 26.499951 M 12.999995 26.499951 L 15.000042 26.499951 M 18.000009 26.499951 L 20.000057 26.499951 M 23.999943 26.499951 L 25.000071 26.499951 M 25.999991 26.499951 L 30.000085 26.499951 M 0.999919 27.500078 L 2.000047 27.500078 M 2.999967 27.500078 L 5.999934 27.500078 M 7.000061 27.500078 L 7.999981 27.500078 M 8.999901 27.500078 L 10.000028 27.500078 M 10.999948 27.500078 L 13.999915 27.500078 M 15.999962 27.500078 L 18.000009 27.500078 M 20.000057 27.500078 L 20.999976 27.500078 M 22.000104 27.500078 L 28.999958 27.500078 M 0.999919 28.499998 L 2.000047 28.499998 M 7.000061 28.499998 L 7.999981 28.499998 M 10.000028 28.499998 L 12.000075 28.499998 M 12.999995 28.499998 L 13.999915 28.499998 M 15.000042 28.499998 L 15.999962 28.499998 M 17.00009 28.499998 L 18.000009 28.499998 M 18.999929 28.499998 L 22.000104 28.499998 M 23.999943 28.499998 L 25.000071 28.499998 M 25.999991 28.499998 L 26.99991 28.499998 M 28.000038 28.499998 L 28.999958 28.499998 M 0.999919 29.499918 L 7.999981 29.499918 M 8.999901 29.499918 L 10.000028 29.499918 M 12.999995 29.499918 L 20.999976 29.499918 M 22.000104 29.499918 L 28.000038 29.499918 " stroke="#ffffff" stroke-width="1" stroke-opacity="1" stroke-miterlimit="4"/></svg>